<?xml version="1.0" encoding="utf-8"?>
<svg version="1.0" xmlns="http://www.w3.org/2000/svg" width="446.000000pt" height="157.000000pt" viewBox="0 0 446.000000 157.000000" preserveAspectRatio="xMidYMid meet">
  <g transform="translate(0.000000,157.000000) scale(0.100000,-0.100000)" fill="#000000" stroke="none">
    <path d="M1650 1450 c-614 -25 -894 -64 -1075 -149 -104 -49 -146 -77 -218 -149 -178 -175 -209 -395 -89 -627 52 -101 181 -228 287 -282 272 -139 548 -148 1110 -33 264 54 386 71 550 77 185 7 323 -4 688 -52 550 -74 802 -67 1035 25 138 56 230 130 307 249 139 215 124 401 -47 568 -123 119 -339 223 -579 278 -295 67 -1379 120 -1969 95z" style="fill:#f9d9e0;"/>
  </g>
</svg>